<mxfile host="Electron" modified="2023-05-16T06:24:17.391Z" agent="Mozilla/5.0 (Windows NT 10.0; Win64; x64) AppleWebKit/537.36 (KHTML, like Gecko) draw.io/21.2.1 Chrome/112.0.5615.87 Electron/24.1.2 Safari/537.36" etag="-kK1MoLyoXbe-ZSIJ5t4" version="21.2.1" type="device">
  <diagram name="Page-1" id="oqmtexg2mNDKOskWnvGF">
    <mxGraphModel dx="2268" dy="1770" grid="1" gridSize="10" guides="1" tooltips="1" connect="1" arrows="1" fold="1" page="1" pageScale="1" pageWidth="1600" pageHeight="1200" math="0" shadow="0">
      <root>
        <mxCell id="0" />
        <mxCell id="1" parent="0" />
        <mxCell id="z5ltOq6qt8Np4CBDmexh-1" value="&lt;h1&gt;周期乘数法&lt;/h1&gt;&lt;div&gt;&lt;br&gt;&lt;/div&gt;&lt;p&gt;周期乘数法算法流程图&lt;/p&gt;" style="text;html=1;strokeColor=none;fillColor=none;spacing=5;spacingTop=-20;whiteSpace=wrap;overflow=hidden;rounded=0;" vertex="1" parent="1">
          <mxGeometry x="40" y="40" width="190" height="120" as="geometry" />
        </mxCell>
        <mxCell id="z5ltOq6qt8Np4CBDmexh-4" style="edgeStyle=orthogonalEdgeStyle;rounded=0;orthogonalLoop=1;jettySize=auto;html=1;" edge="1" parent="1" source="z5ltOq6qt8Np4CBDmexh-2" target="z5ltOq6qt8Np4CBDmexh-3">
          <mxGeometry relative="1" as="geometry" />
        </mxCell>
        <mxCell id="z5ltOq6qt8Np4CBDmexh-2" value="开始" style="rounded=1;whiteSpace=wrap;html=1;arcSize=50;" vertex="1" parent="1">
          <mxGeometry x="40" y="190" width="120" height="60" as="geometry" />
        </mxCell>
        <mxCell id="z5ltOq6qt8Np4CBDmexh-6" style="edgeStyle=orthogonalEdgeStyle;rounded=0;orthogonalLoop=1;jettySize=auto;html=1;entryX=0.5;entryY=0;entryDx=0;entryDy=0;" edge="1" parent="1" source="z5ltOq6qt8Np4CBDmexh-3" target="z5ltOq6qt8Np4CBDmexh-5">
          <mxGeometry relative="1" as="geometry" />
        </mxCell>
        <mxCell id="z5ltOq6qt8Np4CBDmexh-3" value="输入音频文件" style="shape=parallelogram;perimeter=parallelogramPerimeter;whiteSpace=wrap;html=1;fixedSize=1;" vertex="1" parent="1">
          <mxGeometry x="40" y="330" width="120" height="60" as="geometry" />
        </mxCell>
        <mxCell id="z5ltOq6qt8Np4CBDmexh-8" style="edgeStyle=orthogonalEdgeStyle;rounded=0;orthogonalLoop=1;jettySize=auto;html=1;entryX=0.5;entryY=0;entryDx=0;entryDy=0;" edge="1" parent="1" source="z5ltOq6qt8Np4CBDmexh-5" target="z5ltOq6qt8Np4CBDmexh-7">
          <mxGeometry relative="1" as="geometry" />
        </mxCell>
        <mxCell id="z5ltOq6qt8Np4CBDmexh-5" value="计算DFT频谱" style="rounded=0;whiteSpace=wrap;html=1;" vertex="1" parent="1">
          <mxGeometry x="40" y="460" width="120" height="60" as="geometry" />
        </mxCell>
        <mxCell id="z5ltOq6qt8Np4CBDmexh-15" style="edgeStyle=orthogonalEdgeStyle;rounded=0;orthogonalLoop=1;jettySize=auto;html=1;" edge="1" parent="1" source="z5ltOq6qt8Np4CBDmexh-7" target="z5ltOq6qt8Np4CBDmexh-13">
          <mxGeometry relative="1" as="geometry" />
        </mxCell>
        <mxCell id="z5ltOq6qt8Np4CBDmexh-7" value="计算能量谱线" style="rounded=0;whiteSpace=wrap;html=1;" vertex="1" parent="1">
          <mxGeometry x="40" y="580" width="120" height="60" as="geometry" />
        </mxCell>
        <mxCell id="z5ltOq6qt8Np4CBDmexh-12" style="edgeStyle=orthogonalEdgeStyle;rounded=0;orthogonalLoop=1;jettySize=auto;html=1;" edge="1" parent="1" source="z5ltOq6qt8Np4CBDmexh-9" target="z5ltOq6qt8Np4CBDmexh-11">
          <mxGeometry relative="1" as="geometry" />
        </mxCell>
        <mxCell id="z5ltOq6qt8Np4CBDmexh-9" value="输入BPM范围" style="shape=parallelogram;perimeter=parallelogramPerimeter;whiteSpace=wrap;html=1;fixedSize=1;" vertex="1" parent="1">
          <mxGeometry x="240" y="330" width="120" height="60" as="geometry" />
        </mxCell>
        <mxCell id="z5ltOq6qt8Np4CBDmexh-14" style="edgeStyle=orthogonalEdgeStyle;rounded=0;orthogonalLoop=1;jettySize=auto;html=1;" edge="1" parent="1" source="z5ltOq6qt8Np4CBDmexh-11" target="z5ltOq6qt8Np4CBDmexh-13">
          <mxGeometry relative="1" as="geometry" />
        </mxCell>
        <mxCell id="z5ltOq6qt8Np4CBDmexh-11" value="生成周期乘数函数序列" style="rounded=0;whiteSpace=wrap;html=1;" vertex="1" parent="1">
          <mxGeometry x="240" y="460" width="120" height="60" as="geometry" />
        </mxCell>
        <mxCell id="z5ltOq6qt8Np4CBDmexh-17" style="edgeStyle=orthogonalEdgeStyle;rounded=0;orthogonalLoop=1;jettySize=auto;html=1;exitX=1;exitY=0.5;exitDx=0;exitDy=0;" edge="1" parent="1" source="z5ltOq6qt8Np4CBDmexh-13" target="z5ltOq6qt8Np4CBDmexh-16">
          <mxGeometry relative="1" as="geometry" />
        </mxCell>
        <mxCell id="z5ltOq6qt8Np4CBDmexh-13" value="计算周期乘数评分" style="rounded=0;whiteSpace=wrap;html=1;" vertex="1" parent="1">
          <mxGeometry x="240" y="580" width="120" height="60" as="geometry" />
        </mxCell>
        <mxCell id="z5ltOq6qt8Np4CBDmexh-22" style="edgeStyle=orthogonalEdgeStyle;rounded=0;orthogonalLoop=1;jettySize=auto;html=1;" edge="1" parent="1" source="z5ltOq6qt8Np4CBDmexh-16" target="z5ltOq6qt8Np4CBDmexh-18">
          <mxGeometry relative="1" as="geometry" />
        </mxCell>
        <mxCell id="z5ltOq6qt8Np4CBDmexh-16" value="各周期乘数函数序列下评分的方差" style="rounded=0;whiteSpace=wrap;html=1;" vertex="1" parent="1">
          <mxGeometry x="410" y="580" width="120" height="60" as="geometry" />
        </mxCell>
        <mxCell id="z5ltOq6qt8Np4CBDmexh-23" style="edgeStyle=orthogonalEdgeStyle;rounded=0;orthogonalLoop=1;jettySize=auto;html=1;" edge="1" parent="1" source="z5ltOq6qt8Np4CBDmexh-18" target="z5ltOq6qt8Np4CBDmexh-20">
          <mxGeometry relative="1" as="geometry" />
        </mxCell>
        <mxCell id="z5ltOq6qt8Np4CBDmexh-18" value="求最大值" style="rounded=0;whiteSpace=wrap;html=1;" vertex="1" parent="1">
          <mxGeometry x="410" y="690" width="120" height="60" as="geometry" />
        </mxCell>
        <mxCell id="z5ltOq6qt8Np4CBDmexh-24" style="edgeStyle=orthogonalEdgeStyle;rounded=0;orthogonalLoop=1;jettySize=auto;html=1;" edge="1" parent="1" source="z5ltOq6qt8Np4CBDmexh-20" target="z5ltOq6qt8Np4CBDmexh-21">
          <mxGeometry relative="1" as="geometry" />
        </mxCell>
        <mxCell id="z5ltOq6qt8Np4CBDmexh-20" value="输出最大值对应的BPM" style="shape=parallelogram;perimeter=parallelogramPerimeter;whiteSpace=wrap;html=1;fixedSize=1;" vertex="1" parent="1">
          <mxGeometry x="410" y="800" width="120" height="60" as="geometry" />
        </mxCell>
        <mxCell id="z5ltOq6qt8Np4CBDmexh-21" value="结束" style="rounded=1;whiteSpace=wrap;html=1;arcSize=50;" vertex="1" parent="1">
          <mxGeometry x="570" y="800" width="120" height="60" as="geometry" />
        </mxCell>
      </root>
    </mxGraphModel>
  </diagram>
</mxfile>
